<?xml version="1.0" standalone="no"?>
<!DOCTYPE svg PUBLIC "-//W3C//DTD SVG 20010904//EN"
 "http://www.w3.org/TR/2001/REC-SVG-20010904/DTD/svg10.dtd">
<svg version="1.0" xmlns="http://www.w3.org/2000/svg"
 width="70.000000pt" height="70.000000pt" viewBox="0 0 70.000000 70.000000"
 preserveAspectRatio="xMidYMid meet">
<metadata>
Created by potrace 1.14, written by Peter Selinger 2001-2017
</metadata>
<g transform="translate(0.000000,70.000000) scale(0.100000,-0.100000)"
fill="#000000" stroke="none">
<path d="M0 350 l0 -350 350 0 350 0 0 350 0 350 -350 0 -350 0 0 -350z m476
243 l116 -67 -24 -18 c-13 -9 -28 -18 -35 -18 -6 0 -50 23 -97 50 l-85 51 -89
-51 c-48 -27 -92 -50 -98 -50 -5 0 -19 8 -31 18 -23 17 -22 17 95 84 64 38
120 68 124 68 4 0 60 -30 124 -67z m-51 -117 l70 -43 3 -84 c2 -83 2 -84 -25
-100 -16 -8 -50 -28 -76 -43 l-48 -29 3 92 c2 56 -1 91 -7 91 -5 1 -39 18 -73
39 l-64 39 69 41 c37 22 70 40 73 40 3 0 37 -19 75 -43z m-285 -149 l0 -102
90 -50 90 -50 0 -42 c0 -24 -3 -43 -7 -43 -5 1 -60 31 -123 69 l-115 67 -3
147 -3 147 36 -21 35 -21 0 -101z m488 -8 l-3 -141 -119 -69 c-65 -38 -121
-69 -123 -69 -2 0 -3 19 -1 42 3 41 4 43 90 92 l88 51 0 100 c0 99 0 101 28
117 15 10 30 18 35 18 4 0 6 -63 5 -141z"/>
<path d="M465 420 c-3 -6 1 -7 9 -4 18 7 21 14 7 14 -6 0 -13 -4 -16 -10z"/>
<path d="M404 384 c-18 -14 -18 -15 4 -4 12 6 22 13 22 15 0 8 -5 6 -26 -11z"/>
</g>
</svg>
