<svg xmlns="http://www.w3.org/2000/svg">
	<symbol
		id="html-css"
		width="45"
		height="44"
		viewBox="0 0 45 44"
		fill="none"
		xmlns="http://www.w3.org/2000/svg"
	>
		<rect width="45" height="44" rx="10" fill="#1BFF07" />
		<mask
			id="path-2-outside-1_101_266"
			maskUnits="userSpaceOnUse"
			x="10"
			y="11"
			width="26"
			height="24"
			fill="black"
		>
			<rect fill="white" x="10" y="11" width="26" height="24" />
			<path
				d="M21.6154 29.0771C21.6154 29.1995 21.5668 29.3169 21.4802 29.4035C21.3936 29.4901 21.2763 29.5387 21.1538 29.5387H19.7692V33.6925C19.7692 33.8149 19.7206 33.9323 19.6341 34.0189C19.5475 34.1054 19.4301 34.1541 19.3077 34.1541C19.1853 34.1541 19.0679 34.1054 18.9813 34.0189C18.8948 33.9323 18.8462 33.8149 18.8462 33.6925V29.5387H17.4615C17.3391 29.5387 17.2217 29.4901 17.1352 29.4035C17.0486 29.3169 17 29.1995 17 29.0771C17 28.9547 17.0486 28.8373 17.1352 28.7508C17.2217 28.6642 17.3391 28.6156 17.4615 28.6156H21.1538C21.2763 28.6156 21.3936 28.6642 21.4802 28.7508C21.5668 28.8373 21.6154 28.9547 21.6154 29.0771ZM14.6923 28.6156C14.5699 28.6156 14.4525 28.6642 14.366 28.7508C14.2794 28.8373 14.2308 28.9547 14.2308 29.0771V30.9233H11.9231V29.0771C11.9231 28.9547 11.8745 28.8373 11.7879 28.7508C11.7013 28.6642 11.5839 28.6156 11.4615 28.6156C11.3391 28.6156 11.2217 28.6642 11.1352 28.7508C11.0486 28.8373 11 28.9547 11 29.0771V33.6925C11 33.8149 11.0486 33.9323 11.1352 34.0189C11.2217 34.1054 11.3391 34.1541 11.4615 34.1541C11.5839 34.1541 11.7013 34.1054 11.7879 34.0189C11.8745 33.9323 11.9231 33.8149 11.9231 33.6925V31.8464H14.2308V33.6925C14.2308 33.8149 14.2794 33.9323 14.366 34.0189C14.4525 34.1054 14.5699 34.1541 14.6923 34.1541C14.8147 34.1541 14.9321 34.1054 15.0187 34.0189C15.1052 33.9323 15.1538 33.8149 15.1538 33.6925V29.0771C15.1538 28.9547 15.1052 28.8373 15.0187 28.7508C14.9321 28.6642 14.8147 28.6156 14.6923 28.6156ZM34.5385 33.231H32.2308V29.0771C32.2308 28.9547 32.1821 28.8373 32.0956 28.7508C32.009 28.6642 31.8916 28.6156 31.7692 28.6156C31.6468 28.6156 31.5294 28.6642 31.4429 28.7508C31.3563 28.8373 31.3077 28.9547 31.3077 29.0771V33.6925C31.3077 33.8149 31.3563 33.9323 31.4429 34.0189C31.5294 34.1054 31.6468 34.1541 31.7692 34.1541H34.5385C34.6609 34.1541 34.7783 34.1054 34.8648 34.0189C34.9514 33.9323 35 33.8149 35 33.6925C35 33.5701 34.9514 33.4527 34.8648 33.3662C34.7783 33.2796 34.6609 33.231 34.5385 33.231ZM28.6769 28.6387C28.583 28.6118 28.4832 28.614 28.3905 28.6449C28.2979 28.6758 28.2167 28.7339 28.1577 28.8118L26.2308 31.5118L24.3038 28.8118C24.2448 28.7339 24.1637 28.6758 24.071 28.6449C23.9783 28.614 23.8785 28.6118 23.7846 28.6387C23.6912 28.668 23.6096 28.7264 23.5515 28.8052C23.4934 28.884 23.4619 28.9792 23.4615 29.0771V33.6925C23.4615 33.8149 23.5102 33.9323 23.5967 34.0189C23.6833 34.1054 23.8007 34.1541 23.9231 34.1541C24.0455 34.1541 24.1629 34.1054 24.2494 34.0189C24.336 33.9323 24.3846 33.8149 24.3846 33.6925V30.5194L25.85 32.5733C25.894 32.6329 25.9513 32.6814 26.0175 32.7148C26.0836 32.7482 26.1567 32.7656 26.2308 32.7656C26.3049 32.7656 26.3779 32.7482 26.4441 32.7148C26.5102 32.6814 26.5676 32.6329 26.6115 32.5733L28.0769 30.5194V33.6925C28.0769 33.8149 28.1255 33.9323 28.2121 34.0189C28.2987 34.1054 28.4161 34.1541 28.5385 34.1541C28.6609 34.1541 28.7783 34.1054 28.8648 34.0189C28.9514 33.9323 29 33.8149 29 33.6925V29.0771C28.9996 28.9792 28.9681 28.884 28.91 28.8052C28.852 28.7264 28.7703 28.668 28.6769 28.6387ZM31.3077 24.9233C31.1853 24.9233 31.0679 24.8747 30.9813 24.7881C30.8948 24.7016 30.8462 24.5842 30.8462 24.4618V19.3848H24.8462C24.7237 19.3848 24.6064 19.3362 24.5198 19.2496C24.4332 19.1631 24.3846 19.0457 24.3846 18.9233V12.9233H13.7692C13.6468 12.9233 13.5294 12.9719 13.4429 13.0585C13.3563 13.145 13.3077 13.2624 13.3077 13.3848V24.4618C13.3077 24.5842 13.2591 24.7016 13.1725 24.7881C13.086 24.8747 12.9686 24.9233 12.8462 24.9233C12.7237 24.9233 12.6064 24.8747 12.5198 24.7881C12.4332 24.7016 12.3846 24.5842 12.3846 24.4618V13.3848C12.3846 13.0176 12.5305 12.6654 12.7902 12.4058C13.0498 12.1461 13.402 12.0002 13.7692 12.0002H24.8462C24.9069 11.9983 24.9672 12.0097 25.0231 12.0336C25.0789 12.0575 25.1288 12.0934 25.1692 12.1387L31.6308 18.5887C31.7156 18.68 31.7647 18.7987 31.7692 18.9233V24.4618C31.7692 24.5842 31.7206 24.7016 31.634 24.7881C31.5475 24.8747 31.4301 24.9233 31.3077 24.9233ZM25.3077 18.4618H30.1885L25.3077 13.581V18.4618Z"
			/>
		</mask>
		<path
			d="M21.6154 29.0771C21.6154 29.1995 21.5668 29.3169 21.4802 29.4035C21.3936 29.4901 21.2763 29.5387 21.1538 29.5387H19.7692V33.6925C19.7692 33.8149 19.7206 33.9323 19.6341 34.0189C19.5475 34.1054 19.4301 34.1541 19.3077 34.1541C19.1853 34.1541 19.0679 34.1054 18.9813 34.0189C18.8948 33.9323 18.8462 33.8149 18.8462 33.6925V29.5387H17.4615C17.3391 29.5387 17.2217 29.4901 17.1352 29.4035C17.0486 29.3169 17 29.1995 17 29.0771C17 28.9547 17.0486 28.8373 17.1352 28.7508C17.2217 28.6642 17.3391 28.6156 17.4615 28.6156H21.1538C21.2763 28.6156 21.3936 28.6642 21.4802 28.7508C21.5668 28.8373 21.6154 28.9547 21.6154 29.0771ZM14.6923 28.6156C14.5699 28.6156 14.4525 28.6642 14.366 28.7508C14.2794 28.8373 14.2308 28.9547 14.2308 29.0771V30.9233H11.9231V29.0771C11.9231 28.9547 11.8745 28.8373 11.7879 28.7508C11.7013 28.6642 11.5839 28.6156 11.4615 28.6156C11.3391 28.6156 11.2217 28.6642 11.1352 28.7508C11.0486 28.8373 11 28.9547 11 29.0771V33.6925C11 33.8149 11.0486 33.9323 11.1352 34.0189C11.2217 34.1054 11.3391 34.1541 11.4615 34.1541C11.5839 34.1541 11.7013 34.1054 11.7879 34.0189C11.8745 33.9323 11.9231 33.8149 11.9231 33.6925V31.8464H14.2308V33.6925C14.2308 33.8149 14.2794 33.9323 14.366 34.0189C14.4525 34.1054 14.5699 34.1541 14.6923 34.1541C14.8147 34.1541 14.9321 34.1054 15.0187 34.0189C15.1052 33.9323 15.1538 33.8149 15.1538 33.6925V29.0771C15.1538 28.9547 15.1052 28.8373 15.0187 28.7508C14.9321 28.6642 14.8147 28.6156 14.6923 28.6156ZM34.5385 33.231H32.2308V29.0771C32.2308 28.9547 32.1821 28.8373 32.0956 28.7508C32.009 28.6642 31.8916 28.6156 31.7692 28.6156C31.6468 28.6156 31.5294 28.6642 31.4429 28.7508C31.3563 28.8373 31.3077 28.9547 31.3077 29.0771V33.6925C31.3077 33.8149 31.3563 33.9323 31.4429 34.0189C31.5294 34.1054 31.6468 34.1541 31.7692 34.1541H34.5385C34.6609 34.1541 34.7783 34.1054 34.8648 34.0189C34.9514 33.9323 35 33.8149 35 33.6925C35 33.5701 34.9514 33.4527 34.8648 33.3662C34.7783 33.2796 34.6609 33.231 34.5385 33.231ZM28.6769 28.6387C28.583 28.6118 28.4832 28.614 28.3905 28.6449C28.2979 28.6758 28.2167 28.7339 28.1577 28.8118L26.2308 31.5118L24.3038 28.8118C24.2448 28.7339 24.1637 28.6758 24.071 28.6449C23.9783 28.614 23.8785 28.6118 23.7846 28.6387C23.6912 28.668 23.6096 28.7264 23.5515 28.8052C23.4934 28.884 23.4619 28.9792 23.4615 29.0771V33.6925C23.4615 33.8149 23.5102 33.9323 23.5967 34.0189C23.6833 34.1054 23.8007 34.1541 23.9231 34.1541C24.0455 34.1541 24.1629 34.1054 24.2494 34.0189C24.336 33.9323 24.3846 33.8149 24.3846 33.6925V30.5194L25.85 32.5733C25.894 32.6329 25.9513 32.6814 26.0175 32.7148C26.0836 32.7482 26.1567 32.7656 26.2308 32.7656C26.3049 32.7656 26.3779 32.7482 26.4441 32.7148C26.5102 32.6814 26.5676 32.6329 26.6115 32.5733L28.0769 30.5194V33.6925C28.0769 33.8149 28.1255 33.9323 28.2121 34.0189C28.2987 34.1054 28.4161 34.1541 28.5385 34.1541C28.6609 34.1541 28.7783 34.1054 28.8648 34.0189C28.9514 33.9323 29 33.8149 29 33.6925V29.0771C28.9996 28.9792 28.9681 28.884 28.91 28.8052C28.852 28.7264 28.7703 28.668 28.6769 28.6387ZM31.3077 24.9233C31.1853 24.9233 31.0679 24.8747 30.9813 24.7881C30.8948 24.7016 30.8462 24.5842 30.8462 24.4618V19.3848H24.8462C24.7237 19.3848 24.6064 19.3362 24.5198 19.2496C24.4332 19.1631 24.3846 19.0457 24.3846 18.9233V12.9233H13.7692C13.6468 12.9233 13.5294 12.9719 13.4429 13.0585C13.3563 13.145 13.3077 13.2624 13.3077 13.3848V24.4618C13.3077 24.5842 13.2591 24.7016 13.1725 24.7881C13.086 24.8747 12.9686 24.9233 12.8462 24.9233C12.7237 24.9233 12.6064 24.8747 12.5198 24.7881C12.4332 24.7016 12.3846 24.5842 12.3846 24.4618V13.3848C12.3846 13.0176 12.5305 12.6654 12.7902 12.4058C13.0498 12.1461 13.402 12.0002 13.7692 12.0002H24.8462C24.9069 11.9983 24.9672 12.0097 25.0231 12.0336C25.0789 12.0575 25.1288 12.0934 25.1692 12.1387L31.6308 18.5887C31.7156 18.68 31.7647 18.7987 31.7692 18.9233V24.4618C31.7692 24.5842 31.7206 24.7016 31.634 24.7881C31.5475 24.8747 31.4301 24.9233 31.3077 24.9233ZM25.3077 18.4618H30.1885L25.3077 13.581V18.4618Z"
			fill="white"
		/>
		<path
			d="M21.6154 29.0771C21.6154 29.1995 21.5668 29.3169 21.4802 29.4035C21.3936 29.4901 21.2763 29.5387 21.1538 29.5387H19.7692V33.6925C19.7692 33.8149 19.7206 33.9323 19.6341 34.0189C19.5475 34.1054 19.4301 34.1541 19.3077 34.1541C19.1853 34.1541 19.0679 34.1054 18.9813 34.0189C18.8948 33.9323 18.8462 33.8149 18.8462 33.6925V29.5387H17.4615C17.3391 29.5387 17.2217 29.4901 17.1352 29.4035C17.0486 29.3169 17 29.1995 17 29.0771C17 28.9547 17.0486 28.8373 17.1352 28.7508C17.2217 28.6642 17.3391 28.6156 17.4615 28.6156H21.1538C21.2763 28.6156 21.3936 28.6642 21.4802 28.7508C21.5668 28.8373 21.6154 28.9547 21.6154 29.0771ZM14.6923 28.6156C14.5699 28.6156 14.4525 28.6642 14.366 28.7508C14.2794 28.8373 14.2308 28.9547 14.2308 29.0771V30.9233H11.9231V29.0771C11.9231 28.9547 11.8745 28.8373 11.7879 28.7508C11.7013 28.6642 11.5839 28.6156 11.4615 28.6156C11.3391 28.6156 11.2217 28.6642 11.1352 28.7508C11.0486 28.8373 11 28.9547 11 29.0771V33.6925C11 33.8149 11.0486 33.9323 11.1352 34.0189C11.2217 34.1054 11.3391 34.1541 11.4615 34.1541C11.5839 34.1541 11.7013 34.1054 11.7879 34.0189C11.8745 33.9323 11.9231 33.8149 11.9231 33.6925V31.8464H14.2308V33.6925C14.2308 33.8149 14.2794 33.9323 14.366 34.0189C14.4525 34.1054 14.5699 34.1541 14.6923 34.1541C14.8147 34.1541 14.9321 34.1054 15.0187 34.0189C15.1052 33.9323 15.1538 33.8149 15.1538 33.6925V29.0771C15.1538 28.9547 15.1052 28.8373 15.0187 28.7508C14.9321 28.6642 14.8147 28.6156 14.6923 28.6156ZM34.5385 33.231H32.2308V29.0771C32.2308 28.9547 32.1821 28.8373 32.0956 28.7508C32.009 28.6642 31.8916 28.6156 31.7692 28.6156C31.6468 28.6156 31.5294 28.6642 31.4429 28.7508C31.3563 28.8373 31.3077 28.9547 31.3077 29.0771V33.6925C31.3077 33.8149 31.3563 33.9323 31.4429 34.0189C31.5294 34.1054 31.6468 34.1541 31.7692 34.1541H34.5385C34.6609 34.1541 34.7783 34.1054 34.8648 34.0189C34.9514 33.9323 35 33.8149 35 33.6925C35 33.5701 34.9514 33.4527 34.8648 33.3662C34.7783 33.2796 34.6609 33.231 34.5385 33.231ZM28.6769 28.6387C28.583 28.6118 28.4832 28.614 28.3905 28.6449C28.2979 28.6758 28.2167 28.7339 28.1577 28.8118L26.2308 31.5118L24.3038 28.8118C24.2448 28.7339 24.1637 28.6758 24.071 28.6449C23.9783 28.614 23.8785 28.6118 23.7846 28.6387C23.6912 28.668 23.6096 28.7264 23.5515 28.8052C23.4934 28.884 23.4619 28.9792 23.4615 29.0771V33.6925C23.4615 33.8149 23.5102 33.9323 23.5967 34.0189C23.6833 34.1054 23.8007 34.1541 23.9231 34.1541C24.0455 34.1541 24.1629 34.1054 24.2494 34.0189C24.336 33.9323 24.3846 33.8149 24.3846 33.6925V30.5194L25.85 32.5733C25.894 32.6329 25.9513 32.6814 26.0175 32.7148C26.0836 32.7482 26.1567 32.7656 26.2308 32.7656C26.3049 32.7656 26.3779 32.7482 26.4441 32.7148C26.5102 32.6814 26.5676 32.6329 26.6115 32.5733L28.0769 30.5194V33.6925C28.0769 33.8149 28.1255 33.9323 28.2121 34.0189C28.2987 34.1054 28.4161 34.1541 28.5385 34.1541C28.6609 34.1541 28.7783 34.1054 28.8648 34.0189C28.9514 33.9323 29 33.8149 29 33.6925V29.0771C28.9996 28.9792 28.9681 28.884 28.91 28.8052C28.852 28.7264 28.7703 28.668 28.6769 28.6387ZM31.3077 24.9233C31.1853 24.9233 31.0679 24.8747 30.9813 24.7881C30.8948 24.7016 30.8462 24.5842 30.8462 24.4618V19.3848H24.8462C24.7237 19.3848 24.6064 19.3362 24.5198 19.2496C24.4332 19.1631 24.3846 19.0457 24.3846 18.9233V12.9233H13.7692C13.6468 12.9233 13.5294 12.9719 13.4429 13.0585C13.3563 13.145 13.3077 13.2624 13.3077 13.3848V24.4618C13.3077 24.5842 13.2591 24.7016 13.1725 24.7881C13.086 24.8747 12.9686 24.9233 12.8462 24.9233C12.7237 24.9233 12.6064 24.8747 12.5198 24.7881C12.4332 24.7016 12.3846 24.5842 12.3846 24.4618V13.3848C12.3846 13.0176 12.5305 12.6654 12.7902 12.4058C13.0498 12.1461 13.402 12.0002 13.7692 12.0002H24.8462C24.9069 11.9983 24.9672 12.0097 25.0231 12.0336C25.0789 12.0575 25.1288 12.0934 25.1692 12.1387L31.6308 18.5887C31.7156 18.68 31.7647 18.7987 31.7692 18.9233V24.4618C31.7692 24.5842 31.7206 24.7016 31.634 24.7881C31.5475 24.8747 31.4301 24.9233 31.3077 24.9233ZM25.3077 18.4618H30.1885L25.3077 13.581V18.4618Z"
			stroke="white"
			stroke-width="0.4"
			mask="url(#path-2-outside-1_101_266)"
		/>
	</symbol>
	<symbol
		id="javascript"
		width="45"
		height="44"
		viewBox="0 0 45 44"
		fill="none"
		xmlns="http://www.w3.org/2000/svg"
	>
		<rect width="45" height="44" rx="10" fill="#1BFF07" />
		<path
			d="M15.5 13C15.5 12.2044 15.8161 11.4413 16.3787 10.8787C16.9413 10.3161 17.7044 10 18.5 10H25.379C25.9755 10.0005 26.5474 10.2379 26.969 10.66L32.8415 16.531C33.263 16.9528 33.4999 17.5247 33.5 18.121V31C33.5 31.7956 33.1839 32.5587 32.6213 33.1213C32.0587 33.6839 31.2956 34 30.5 34H22.25C22.5785 33.565 22.8125 33.055 22.925 32.5H30.5C30.8978 32.5 31.2794 32.342 31.5607 32.0607C31.842 31.7794 32 31.3978 32 31V19H26.75C26.1533 19 25.581 18.7629 25.159 18.341C24.7371 17.919 24.5 17.3467 24.5 16.75V11.5H18.5C18.1022 11.5 17.7206 11.658 17.4393 11.9393C17.158 12.2206 17 12.6022 17 13V24.25C16.8785 24.3415 16.76 24.4405 16.652 24.547C16.3818 24.1202 15.9761 23.7964 15.5 23.6275V13ZM26.75 17.5H31.6895L26 11.8105V16.75C26 16.9489 26.079 17.1397 26.2197 17.2803C26.3603 17.421 26.5511 17.5 26.75 17.5ZM14.75 25C14.5511 25 14.3603 25.079 14.2197 25.2197C14.079 25.3603 14 25.5511 14 25.75V31.75C14 31.9489 13.921 32.1397 13.7803 32.2803C13.6397 32.421 13.4489 32.5 13.25 32.5C13.0511 32.5 12.8603 32.421 12.7197 32.2803C12.579 32.1397 12.5 31.9489 12.5 31.75V31C12.5 30.8011 12.421 30.6103 12.2803 30.4697C12.1397 30.329 11.9489 30.25 11.75 30.25C11.5511 30.25 11.3603 30.329 11.2197 30.4697C11.079 30.6103 11 30.8011 11 31V31.75C11 32.3467 11.2371 32.919 11.659 33.341C12.081 33.7629 12.6533 34 13.25 34C13.8467 34 14.419 33.7629 14.841 33.341C15.2629 32.919 15.5 32.3467 15.5 31.75V25.75C15.5 25.5511 15.421 25.3603 15.2803 25.2197C15.1397 25.079 14.9489 25 14.75 25ZM17 27.25C17 26.6533 17.2371 26.081 17.659 25.659C18.081 25.2371 18.6533 25 19.25 25C19.8467 25 20.419 25.2371 20.841 25.659C21.2629 26.081 21.5 26.6533 21.5 27.25C21.5 27.4489 21.421 27.6397 21.2803 27.7803C21.1397 27.921 20.9489 28 20.75 28C20.5511 28 20.3603 27.921 20.2197 27.7803C20.079 27.6397 20 27.4489 20 27.25C20 27.0511 19.921 26.8603 19.7803 26.7197C19.6397 26.579 19.4489 26.5 19.25 26.5C19.0511 26.5 18.8603 26.579 18.7197 26.7197C18.579 26.8603 18.5 27.0511 18.5 27.25V27.823C18.5 27.9622 18.5387 28.0986 18.6118 28.217C18.685 28.3354 18.7896 28.4312 18.914 28.4935L20.2565 29.164C20.6303 29.3509 20.9446 29.6383 21.1642 29.9938C21.3839 30.3494 21.5001 30.7591 21.5 31.177V31.75C21.5 32.3467 21.2629 32.919 20.841 33.341C20.419 33.7629 19.8467 34 19.25 34C18.6533 34 18.081 33.7629 17.659 33.341C17.2371 32.919 17 32.3467 17 31.75C17 31.5511 17.079 31.3603 17.2197 31.2197C17.3603 31.079 17.5511 31 17.75 31C17.9489 31 18.1397 31.079 18.2803 31.2197C18.421 31.3603 18.5 31.5511 18.5 31.75C18.5 31.9489 18.579 32.1397 18.7197 32.2803C18.8603 32.421 19.0511 32.5 19.25 32.5C19.4489 32.5 19.6397 32.421 19.7803 32.2803C19.921 32.1397 20 31.9489 20 31.75V31.177C20 31.0378 19.9613 30.9014 19.8882 30.783C19.815 30.6646 19.7104 30.5688 19.586 30.5065L18.2435 29.836C17.8697 29.6491 17.5554 29.3617 17.3358 29.0062C17.1161 28.6506 16.9999 28.2409 17 27.823V27.25Z"
			fill="white"
		/>
	</symbol>
	<symbol
		id="framework"
		width="45"
		height="44"
		viewBox="0 0 45 44"
		fill="none"
		xmlns="http://www.w3.org/2000/svg"
	>
		<rect width="45" height="44" rx="10" fill="#1BFF07" />
		<path
			d="M27.8544 8.9H27.8539L16.3886 8.9L16.3881 8.9C15.7292 8.90327 15.0983 9.16646 14.6324 9.63236C14.1665 10.0983 13.9033 10.7292 13.9 11.3881V11.3886L13.9 32.4083L13.9 32.4088C13.9033 33.0676 14.1665 33.6986 14.6324 34.1645C15.0983 34.6304 15.7292 34.8936 16.3881 34.8969H16.3886H27.8539L27.8544 34.8969C28.5133 34.8936 29.1442 34.6304 29.6101 34.1645C30.076 33.6986 30.3392 33.0676 30.3425 32.4088V32.4083V11.3886L30.3425 11.3881C30.3392 10.7292 30.076 10.0983 29.6101 9.63236C29.1442 9.16646 28.5133 8.90327 27.8544 8.9ZM15.0554 13.8772H29.187V29.9197H15.0554V13.8772ZM16.3886 10.0554H27.8539C28.2075 10.0554 28.5465 10.1959 28.7966 10.4459C29.0466 10.6959 29.187 11.035 29.187 11.3886V12.7218H15.0554V11.3886C15.0554 11.035 15.1959 10.6959 15.4459 10.4459C15.6959 10.1959 16.035 10.0554 16.3886 10.0554ZM27.8539 33.7414H16.3886C16.035 33.7414 15.6959 33.601 15.4459 33.351C15.1959 33.1009 15.0554 32.7619 15.0554 32.4083V31.0751H29.187V32.4083C29.187 32.7619 29.0466 33.1009 28.7966 33.351C28.5465 33.601 28.2075 33.7414 27.8539 33.7414Z"
			fill="white"
			stroke="white"
			stroke-width="0.2"
		/>
	</symbol>
	<symbol
		id="weblayout"
		width="45"
		height="44"
		viewBox="0 0 45 44"
		fill="none"
		xmlns="http://www.w3.org/2000/svg"
	>
		<rect width="45" height="44" rx="10" fill="#1BFF07" />
		<path
			d="M22.66 34.1674C20.3915 34.1674 18.3676 32.1298 17.0907 28.6388C16.9956 28.3671 17.1314 28.0547 17.4167 27.9732C17.6884 27.8645 17.9872 28.014 18.0823 28.2856C19.1826 31.3148 20.8941 33.1214 22.66 33.1214C23.9369 33.1214 25.2001 32.1977 26.2189 30.5134C26.2928 30.3983 26.4086 30.3165 26.5419 30.2856C26.6751 30.2548 26.8151 30.2771 26.9321 30.348C27.049 30.4189 27.1336 30.5327 27.1679 30.6651C27.2022 30.7975 27.1833 30.938 27.1154 31.0567C25.8929 33.0671 24.3172 34.1674 22.66 34.1674ZM27.9712 28.3536C27.9203 28.3523 27.8699 28.3432 27.8218 28.3264C27.5365 28.2313 27.4143 27.9461 27.4686 27.6608C28.0935 25.7591 28.3923 23.5449 28.3923 21.2629C28.3923 16.0332 26.6944 11.4011 24.2765 9.90691C23.9369 10.3959 23.3392 10.7763 22.66 10.7763C21.6276 10.7763 20.7719 9.93408 20.7719 8.88813C20.7719 7.84219 21.6276 7 22.66 7C23.7059 7 24.5617 7.8286 24.5753 8.86097C27.455 10.3959 29.4518 15.4355 29.4518 21.2629C29.4518 23.64 29.1123 25.9628 28.4738 27.9868C28.4059 28.2041 28.2021 28.3536 27.9712 28.3536ZM22.66 8.04594C22.1982 8.04594 21.8178 8.42629 21.8178 8.88813C21.8178 9.34998 22.2117 9.71674 22.66 9.71674C23.1354 9.71674 23.5294 9.34998 23.5294 8.88813C23.5294 8.42629 23.1354 8.04594 22.66 8.04594ZM11.9017 29.4674C10.8558 29.4674 10 28.6117 10 27.5793C10 26.9137 10.3532 26.316 10.8829 25.9764C10.6928 22.7027 14.0751 18.4239 19.2641 15.4491C21.4239 14.2265 23.6788 13.3436 25.8114 12.8953C26.0559 12.8274 26.3683 13.004 26.4227 13.2892C26.4906 13.5745 26.314 13.8598 26.0559 13.9141C24.0184 14.3488 21.8586 15.191 19.8074 16.3592C15.1346 19.0352 11.9289 22.8658 11.9289 25.6912C12.9612 25.7047 13.8306 26.5469 13.8306 27.5793C13.8306 28.6252 12.9477 29.4674 11.9017 29.4674ZM11.9017 26.7371C11.4399 26.7371 11.0595 27.1174 11.0595 27.5793C11.0595 28.0547 11.4399 28.4215 11.9017 28.4215C12.3636 28.4215 12.7575 28.0547 12.7575 27.5793C12.7575 27.1174 12.3636 26.7371 11.9017 26.7371ZM31.4894 22.5397C31.3943 22.5397 31.2721 22.499 31.177 22.4175C31.0717 22.325 31.0069 22.1948 30.9968 22.0551C30.9866 21.9153 31.0318 21.7771 31.1226 21.6704C33.2145 19.2253 33.9345 16.8618 33.0379 15.3404C32.3995 14.2401 30.9461 13.6288 28.9492 13.6017C28.6504 13.6017 28.4195 13.3572 28.4331 13.0719C28.4331 12.7867 28.6776 12.5693 28.9628 12.5557C31.34 12.5829 33.1194 13.3843 33.948 14.8106C35.0891 16.7667 34.342 19.5106 31.9241 22.3496C31.8154 22.4718 31.666 22.5397 31.4894 22.5397ZM28.7727 29.9564C26.0559 29.9564 22.5785 28.9512 19.2641 27.0631C17.1586 25.8542 15.2841 24.3735 13.8306 22.7978C13.7357 22.6966 13.6828 22.563 13.6828 22.4243C13.6828 22.2855 13.7357 22.1519 13.8306 22.0507C14.0751 21.8606 14.4011 21.8741 14.6049 22.0915C15.9768 23.5857 17.7699 24.9984 19.7938 26.153C24.29 28.7339 29.1394 29.5897 31.6932 28.3536C31.5845 28.1226 31.4894 27.851 31.4894 27.5793C31.4894 26.5333 32.3723 25.6912 33.4183 25.6912C34.4642 25.6912 35.32 26.5333 35.32 27.5793C35.3188 27.9192 35.2263 28.2525 35.0522 28.5443C34.878 28.8362 34.6287 29.0759 34.3301 29.2383C34.0316 29.4008 33.6949 29.48 33.3553 29.4677C33.0156 29.4555 32.6855 29.3521 32.3995 29.1686C31.4486 29.6983 30.2125 29.9564 28.7727 29.9564ZM32.8478 28.2313C33.0244 28.34 33.2145 28.4215 33.4183 28.4215C33.6416 28.4215 33.8559 28.3328 34.0138 28.1748C34.1717 28.0169 34.2605 27.8027 34.2605 27.5793C34.2605 27.3559 34.1717 27.1417 34.0138 26.9838C33.8559 26.8258 33.6416 26.7371 33.4183 26.7371C32.9429 26.7371 32.5761 27.1174 32.5761 27.5793C32.5761 27.7695 32.644 27.9461 32.7527 28.0955C32.807 28.1226 32.8478 28.177 32.8478 28.2313ZM12.4179 20.5837C12.2413 20.5837 12.0647 20.475 11.9696 20.312C10.7471 18.2065 10.5433 16.2505 11.3855 14.797C12.5266 12.841 15.2976 12.1075 19.006 12.7731C19.2641 12.8274 19.4814 13.1127 19.4271 13.3843C19.3863 13.6696 19.1147 13.8598 18.8294 13.7918C15.6236 13.2349 13.1514 13.7918 12.2956 15.3268C11.6436 16.4407 11.8474 18.0164 12.8797 19.7823C13.0156 20.0403 12.9341 20.3528 12.676 20.5022C12.5945 20.5429 12.513 20.5837 12.4179 20.5837ZM22.9453 22.4854C22.621 22.5575 22.2814 22.4978 22.0012 22.3194C21.721 22.1411 21.5231 21.8588 21.4511 21.5345C21.379 21.2103 21.4387 20.8707 21.617 20.5905C21.7953 20.3103 22.0777 20.1124 22.4019 20.0403C23.0811 19.9045 23.7603 20.3256 23.8961 21.0048C24.0184 21.6704 23.6109 22.336 22.9453 22.4854Z"
			fill="white"
		/>
	</symbol>
</svg>